<svg width="1200" height="630" viewBox="0 0 1200 630" xmlns="http://www.w3.org/2000/svg">
  <defs>
    <linearGradient id="bg" x1="0" y1="0" x2="1" y2="1">
      <stop offset="0%" stop-color="#0b1020"/>
      <stop offset="55%" stop-color="#1e1b4b"/>
      <stop offset="100%" stop-color="#3b0764"/>
    </linearGradient>
    <radialGradient id="glow" cx="78%" cy="32%" r="38%">
      <stop offset="0%" stop-color="#a78bfa" stop-opacity="0.35"/>
      <stop offset="100%" stop-color="#a78bfa" stop-opacity="0"/>
    </radialGradient>
    <linearGradient id="accent" x1="0" y1="0" x2="1" y2="0">
      <stop offset="0%" stop-color="#818cf8"/>
      <stop offset="50%" stop-color="#c084fc"/>
      <stop offset="100%" stop-color="#f472b6"/>
    </linearGradient>
  </defs>
  <rect width="1200" height="630" fill="url(#bg)"/>
  <rect width="1200" height="630" fill="url(#glow)"/>
  <g opacity="0.18" stroke="#a5b4fc" stroke-width="1.2" fill="none">
    <circle cx="950" cy="200" r="60"/>
    <circle cx="1050" cy="320" r="40"/>
    <circle cx="860" cy="320" r="40"/>
    <circle cx="950" cy="440" r="50"/>
    <line x1="950" y1="260" x2="950" y2="390"/>
    <line x1="900" y1="200" x2="1010" y2="320"/>
    <line x1="1000" y1="200" x2="890" y2="320"/>
    <line x1="860" y1="360" x2="930" y2="430"/>
    <line x1="1050" y1="360" x2="980" y2="430"/>
  </g>
  <rect x="80" y="92" width="6" height="36" rx="3" fill="url(#accent)"/>
  <text x="104" y="120" font-family="ui-sans-serif, system-ui, -apple-system, sans-serif" font-size="22" font-weight="500" fill="#c7d2fe" letter-spacing="3">PORTFOLIO</text>
  <text x="80" y="240" font-family="ui-sans-serif, system-ui, -apple-system, sans-serif" font-size="84" font-weight="700" fill="#ffffff">Vikram Ravi</text>
  <text x="80" y="320" font-family="ui-sans-serif, system-ui, -apple-system, sans-serif" font-size="44" font-weight="600" fill="url(#accent)">Applied AI Engineer</text>
  <text x="80" y="380" font-family="ui-sans-serif, system-ui, -apple-system, sans-serif" font-size="26" font-weight="400" fill="#cbd5e1">7+ years building Agentic RAG, LangGraph</text>
  <text x="80" y="416" font-family="ui-sans-serif, system-ui, -apple-system, sans-serif" font-size="26" font-weight="400" fill="#cbd5e1">multi-agent systems, and LLM apps.</text>
  <g font-family="ui-sans-serif, system-ui, sans-serif" font-size="20" font-weight="500">
    <rect x="80" y="478" width="170" height="46" rx="23" fill="#ffffff" fill-opacity="0.08" stroke="#a5b4fc" stroke-opacity="0.4"/>
    <text x="165" y="507" text-anchor="middle" fill="#e0e7ff">Claude API</text>
    <rect x="266" y="478" width="160" height="46" rx="23" fill="#ffffff" fill-opacity="0.08" stroke="#a5b4fc" stroke-opacity="0.4"/>
    <text x="346" y="507" text-anchor="middle" fill="#e0e7ff">LangGraph</text>
    <rect x="442" y="478" width="220" height="46" rx="23" fill="#ffffff" fill-opacity="0.08" stroke="#a5b4fc" stroke-opacity="0.4"/>
    <text x="552" y="507" text-anchor="middle" fill="#e0e7ff">Agentic RAG</text>
    <rect x="678" y="478" width="130" height="46" rx="23" fill="#ffffff" fill-opacity="0.08" stroke="#a5b4fc" stroke-opacity="0.4"/>
    <text x="743" y="507" text-anchor="middle" fill="#e0e7ff">FastAPI</text>
    <rect x="824" y="478" width="110" height="46" rx="23" fill="#ffffff" fill-opacity="0.08" stroke="#a5b4fc" stroke-opacity="0.4"/>
    <text x="879" y="507" text-anchor="middle" fill="#e0e7ff">React</text>
  </g>
  <text x="80" y="588" font-family="ui-sans-serif, system-ui, -apple-system, sans-serif" font-size="20" font-weight="400" fill="#94a3b8">vikramportfolio.vercel.app</text>
</svg>
