<svg xmlns="http://www.w3.org/2000/svg" viewBox="0 0 800 500" preserveAspectRatio="xMidYMid slice">
  <defs>
    <linearGradient id="bg2" x1="0" y1="0" x2="1" y2="1">
      <stop offset="0%" stop-color="#0c4a6e"/>
      <stop offset="60%" stop-color="#0e7490"/>
      <stop offset="100%" stop-color="#14b8a6"/>
    </linearGradient>
    <radialGradient id="glow2" cx="50%" cy="50%" r="50%">
      <stop offset="0%" stop-color="#5eead4" stop-opacity="0.35"/>
      <stop offset="100%" stop-color="#5eead4" stop-opacity="0"/>
    </radialGradient>
  </defs>
  <rect width="800" height="500" fill="url(#bg2)"/>
  <circle cx="400" cy="260" r="240" fill="url(#glow2)"/>
  <g fill="#ecfeff" font-family="ui-sans-serif, system-ui, sans-serif" text-anchor="middle">
    <text x="400" y="70" font-size="26" font-weight="700">AI Ticket Classifier</text>
    <text x="400" y="460" font-size="14" opacity="0.85">FastAPI · LangGraph · Claude API · React 19</text>
  </g>
  <g transform="translate(140 140)" fill="#ecfeff" font-family="ui-sans-serif, system-ui, sans-serif">
    <rect x="0" y="0" width="240" height="56" rx="8" fill="#0f172a" opacity="0.6"/>
    <text x="120" y="32" text-anchor="middle" font-size="14" font-weight="600">Incoming Ticket</text>
    <rect x="0" y="80" width="240" height="56" rx="8" fill="#0f172a" opacity="0.6"/>
    <text x="120" y="112" text-anchor="middle" font-size="13">PII Redaction · Guardrails</text>
    <rect x="0" y="160" width="240" height="56" rx="8" fill="#0f172a" opacity="0.6"/>
    <text x="120" y="192" text-anchor="middle" font-size="13">Classify · Confidence</text>
  </g>
  <g transform="translate(420 140)" fill="#ecfeff" font-family="ui-sans-serif, system-ui, sans-serif">
    <rect x="0" y="0" width="240" height="56" rx="8" fill="#0f172a" opacity="0.6"/>
    <text x="120" y="24" text-anchor="middle" font-size="12">Category</text>
    <text x="120" y="44" text-anchor="middle" font-size="16" font-weight="700">Billing</text>
    <rect x="0" y="80" width="240" height="56" rx="8" fill="#0f172a" opacity="0.6"/>
    <text x="120" y="104" text-anchor="middle" font-size="12">Priority</text>
    <text x="120" y="124" text-anchor="middle" font-size="16" font-weight="700">High</text>
    <rect x="0" y="160" width="240" height="56" rx="8" fill="#0f172a" opacity="0.6"/>
    <text x="120" y="184" text-anchor="middle" font-size="12">Route</text>
    <text x="120" y="204" text-anchor="middle" font-size="16" font-weight="700">Tier-2 Support</text>
  </g>
</svg>
